# xmcd
#
# Track frame offsets:
#	150
#	18105
#	35442
#	61305
#	81695
#	103927
#	127652
#	153057
#	171800
#	194932
#	211985
#	237945
#
# Disc length: 3495 seconds
#
# Revision: 0
# Processed by: cddbd v1.5.1PL0 Copyright (c) Steve Scherf et al.
# Submitted via: dBpowerAMP V4.0
#
DISCID=9e0da50c
DTITLE=Marvin Gaye - Soul Love 80's
DYEAR=2003
DGENRE=Soul
TTITLE0=Marvin Gaye - Sexual Healing
TTITLE1=Luther Vandross - Never Too Much 
TTITLE2=Regina Belle - Baby Come Me 
TTITLE3=The O'Jays - Have You Had Your Love Today
TTITLE4=Surface - Shower Me With Your Love
TTITLE5=Cheryl "Pepsi" Riley - Thanks For My Child
TTITLE6=The Isley Brothers - Between The Sheets
TTITLE7=Deniece Williams - It's Gonna Take A Miracle 
TTITLE8=Lisa Lisa and Cult Jam - Lost In Emotion 
TTITLE9=Patti Labelle - If Only You Knew
TTITLE10=The Isley Brothers - Don't Say Goodnight (It's Time For Love) 
TTITLE11=Cheryl Lynn With Luther Vandross - If This World Were Mine
EXTD=
EXTT0=
EXTT1=
EXTT2=
EXTT3=
EXTT4=
EXTT5=
EXTT6=
EXTT7=
EXTT8=
EXTT9=
EXTT10=
EXTT11=
PLAYORDER=
